<?xml version="1.0" standalone="no"?>
<!DOCTYPE svg PUBLIC "-//W3C//DTD SVG 20010904//EN"
 "http://www.w3.org/TR/2001/REC-SVG-20010904/DTD/svg10.dtd">
<svg version="1.0" xmlns="http://www.w3.org/2000/svg"
 width="41" height="41" viewBox="0 0 500.000000 500.000000"
 preserveAspectRatio="xMidYMid meet">

<g transform="translate(0.000000,500.000000) scale(0.100000,-0.100000)"
fill="#000000" stroke="none">
<path d="M2045 3698 c-10 -33 -25 -95 -25 -108 0 -9 20 -22 50 -33 30 -11 72
-38 107 -71 l57 -53 -26 -31 c-38 -45 -67 -111 -81 -184 l-12 -65 -89 34
c-228 88 -451 135 -646 135 -149 0 -246 -18 -347 -66 -213 -102 -282 -288
-181 -495 38 -80 138 -182 226 -231 61 -35 62 -35 62 -80 0 -26 10 -67 24 -97
106 -226 462 -294 728 -137 l58 33 0 -97 c0 -283 86 -540 234 -699 236 -254
563 -178 740 173 74 146 116 338 116 527 l0 96 58 -33 c175 -103 415 -114 570
-25 108 61 182 166 182 259 0 45 1 45 62 80 88 49 188 151 226 231 101 207 32
393 -181 495 -101 48 -198 66 -347 66 -195 0 -418 -47 -646 -135 l-89 -34 -12
65 c-14 73 -43 139 -81 184 l-26 31 57 53 c35 33 77 60 107 71 55 19 56 23 36
98 -15 60 -19 60 -125 9 -48 -24 -93 -56 -132 -95 -59 -59 -60 -60 -97 -49
-48 13 -166 13 -214 -1 -37 -10 -39 -9 -90 44 -57 58 -119 98 -198 128 -39 15
-52 16 -55 7z m-502 -539 c125 -19 314 -71 432 -119 28 -12 24 -13 -80 -31
-198 -34 -374 -94 -502 -171 -57 -34 -158 -125 -186 -167 -15 -22 -18 -23 -48
-10 -45 18 -151 125 -174 174 -47 101 -24 197 61 253 43 29 138 66 194 75 53
9 234 7 303 -4z m2300 -21 c137 -52 193 -116 185 -212 -2 -28 -13 -69 -23 -91
-23 -49 -129 -156 -174 -174 -30 -13 -33 -12 -48 10 -28 42 -129 133 -186 167
-128 77 -304 137 -502 171 -124 21 -125 17 20 67 198 69 343 94 520 90 120 -3
150 -7 208 -28z m-1653 -262 c0 -7 -16 -34 -35 -59 -46 -60 -107 -175 -135
-255 -19 -51 -35 -74 -91 -126 -161 -152 -379 -195 -536 -106 -124 71 -133
172 -27 290 122 135 419 237 764 263 25 2 48 4 53 5 4 1 7 -4 7 -12z m825 -12
c345 -47 583 -163 666 -325 40 -79 9 -156 -84 -209 -157 -89 -375 -46 -536
106 -56 52 -72 75 -91 126 -28 80 -89 195 -135 255 -19 25 -35 51 -35 58 0 14
48 12 215 -11z m-320 -136 c43 -11 55 -20 83 -62 18 -27 31 -54 29 -60 -2 -6
-37 -22 -78 -35 -65 -22 -92 -25 -229 -25 -137 -1 -164 2 -233 23 -43 13 -80
28 -83 33 -6 10 38 89 60 107 46 38 332 50 451 19z m-465 -674 c81 -27 94 -28
265 -28 171 0 184 1 265 28 47 16 97 35 113 42 l27 15 0 -53 c-1 -89 -25 -190
-50 -210 -49 -40 -222 -78 -355 -78 -133 0 -306 38 -355 78 -25 20 -49 121
-50 210 l0 53 28 -15 c15 -7 65 -26 112 -42z"/>
</g>
</svg>
